<svg width="20" height="21" viewBox="0 0 20 21" fill="none" xmlns="http://www.w3.org/2000/svg">
<path fill-rule="evenodd" clip-rule="evenodd" d="M1.66675 10.0384C1.66675 5.43591 5.39758 1.70508 10.0001 1.70508C14.6026 1.70508 18.3334 5.43591 18.3334 10.0384C18.3334 14.6409 14.6026 18.3717 10.0001 18.3717C5.39758 18.3717 1.66675 14.6409 1.66675 10.0384ZM10.0001 3.37174C8.23197 3.37174 6.53628 4.07412 5.28604 5.32437C4.03579 6.57461 3.33341 8.2703 3.33341 10.0384C3.33341 11.8065 4.03579 13.5022 5.28604 14.7525C6.53628 16.0027 8.23197 16.7051 10.0001 16.7051C11.7682 16.7051 13.4639 16.0027 14.7141 14.7525C15.9644 13.5022 16.6667 11.8065 16.6667 10.0384C16.6667 8.2703 15.9644 6.57461 14.7141 5.32437C13.4639 4.07412 11.7682 3.37174 10.0001 3.37174Z" fill="#15BD81"/>
<path fill-rule="evenodd" clip-rule="evenodd" d="M10.8333 5.87166C10.8333 5.65065 10.7455 5.43869 10.5893 5.28241C10.433 5.12613 10.221 5.03833 10 5.03833C9.77899 5.03833 9.56702 5.12613 9.41074 5.28241C9.25446 5.43869 9.16667 5.65065 9.16667 5.87166V9.205H5.83333C5.61232 9.205 5.40036 9.29279 5.24408 9.44907C5.0878 9.60535 5 9.81732 5 10.0383C5 10.2593 5.0878 10.4713 5.24408 10.6276C5.40036 10.7839 5.61232 10.8717 5.83333 10.8717H9.16667V14.205C9.16667 14.426 9.25446 14.638 9.41074 14.7943C9.56702 14.9505 9.77899 15.0383 10 15.0383C10.221 15.0383 10.433 14.9505 10.5893 14.7943C10.7455 14.638 10.8333 14.426 10.8333 14.205V10.8717H14.1667C14.3877 10.8717 14.5996 10.7839 14.7559 10.6276C14.9122 10.4713 15 10.2593 15 10.0383C15 9.81732 14.9122 9.60535 14.7559 9.44907C14.5996 9.29279 14.3877 9.205 14.1667 9.205H10.8333V5.87166Z" fill="#15BD81"/>
</svg>
