<svg width="24" height="25" viewBox="0 0 24 25" fill="none" xmlns="http://www.w3.org/2000/svg">
<path d="M16.414 12.0383L17.828 10.6243C18.0101 10.4357 18.1109 10.1831 18.1086 9.92093C18.1064 9.65873 18.0012 9.40792 17.8158 9.22251C17.6304 9.0371 17.3796 8.93193 17.1174 8.92966C16.8552 8.92738 16.6026 9.02817 16.414 9.21033L15 10.6243L13.586 9.21033C13.4937 9.11482 13.3834 9.03864 13.2614 8.98623C13.1394 8.93382 13.0082 8.90623 12.8754 8.90508C12.7426 8.90393 12.6109 8.92923 12.488 8.97951C12.3651 9.02979 12.2535 9.10404 12.1596 9.19794C12.0657 9.29183 11.9914 9.40348 11.9411 9.52638C11.8909 9.64927 11.8656 9.78095 11.8667 9.91373C11.8679 10.0465 11.8955 10.1777 11.9479 10.2997C12.0003 10.4217 12.0765 10.5321 12.172 10.6243L13.586 12.0383L12.172 13.4523C12.0765 13.5446 12.0003 13.6549 11.9479 13.7769C11.8955 13.8989 11.8679 14.0301 11.8667 14.1629C11.8656 14.2957 11.8909 14.4274 11.9411 14.5503C11.9914 14.6732 12.0657 14.7848 12.1596 14.8787C12.2535 14.9726 12.3651 15.0469 12.488 15.0972C12.6109 15.1474 12.7426 15.1727 12.8754 15.1716C13.0082 15.1704 13.1394 15.1428 13.2614 15.0904C13.3834 15.038 13.4937 14.9618 13.586 14.8663L15 13.4523L16.414 14.8663C16.5062 14.9618 16.6166 15.038 16.7386 15.0904C16.8606 15.1428 16.9918 15.1704 17.1246 15.1716C17.2573 15.1727 17.389 15.1474 17.5119 15.0972C17.6348 15.0469 17.7465 14.9726 17.8404 14.8787C17.9343 14.7848 18.0085 14.6732 18.0588 14.5503C18.1091 14.4274 18.1344 14.2957 18.1332 14.1629C18.1321 14.0301 18.1045 13.8989 18.0521 13.7769C17.9997 13.6549 17.9235 13.5446 17.828 13.4523L16.414 12.0383ZM9.82797 5.03833H20C20.5304 5.03833 21.0391 5.24904 21.4142 5.62412C21.7893 5.99919 22 6.5079 22 7.03833V17.0383C22 17.5688 21.7893 18.0775 21.4142 18.4525C21.0391 18.8276 20.5304 19.0383 20 19.0383H9.82797C9.29758 19.0382 8.78896 18.8274 8.41397 18.4523L2.70697 12.7453C2.5195 12.5578 2.41418 12.3035 2.41418 12.0383C2.41418 11.7732 2.5195 11.5189 2.70697 11.3313L8.41397 5.62433C8.78896 5.24923 9.29758 5.03844 9.82797 5.03833Z" fill="#832424"/>
</svg>
