<svg width="21" height="21" viewBox="0 0 21 21" fill="none" xmlns="http://www.w3.org/2000/svg">
<rect x="0.5" y="0.5" width="20" height="20" stroke="#006A44" stroke-opacity="0.35"/>
<path d="M4.9 1.75C4.29663 1.75 3.71798 1.98969 3.29133 2.41633C2.86469 2.84298 2.625 3.42163 2.625 4.025V8.225C2.625 8.52376 2.68384 8.81959 2.79817 9.0956C2.9125 9.37162 3.08008 9.62241 3.29133 9.83367C3.71798 10.2603 4.29663 10.5 4.9 10.5H7.35C7.95337 10.5 8.53202 10.2603 8.95867 9.83367C9.38531 9.40702 9.625 8.82837 9.625 8.225V4.025C9.625 3.42163 9.38531 2.84298 8.95867 2.41633C8.53202 1.98969 7.95337 1.75 7.35 1.75H4.9ZM4.9 12.25C4.29663 12.25 3.71798 12.4897 3.29133 12.9163C2.86469 13.343 2.625 13.9216 2.625 14.525V16.975C2.625 17.5784 2.86469 18.157 3.29133 18.5837C3.71798 19.0103 4.29663 19.25 4.9 19.25H7.35C7.95337 19.25 8.53202 19.0103 8.95867 18.5837C9.38531 18.157 9.625 17.5784 9.625 16.975V14.525C9.625 13.9216 9.38531 13.343 8.95867 12.9163C8.53202 12.4897 7.95337 12.25 7.35 12.25H4.9ZM13.65 1.75C13.0466 1.75 12.468 1.98969 12.0413 2.41633C11.6147 2.84298 11.375 3.42163 11.375 4.025V6.475C11.375 7.07837 11.6147 7.65702 12.0413 8.08367C12.468 8.51031 13.0466 8.75 13.65 8.75H16.1C16.3988 8.75 16.6946 8.69116 16.9706 8.57683C17.2466 8.4625 17.4974 8.29492 17.7087 8.08367C17.9199 7.87241 18.0875 7.62162 18.2018 7.3456C18.3162 7.06959 18.375 6.77376 18.375 6.475V4.025C18.375 3.72624 18.3162 3.43041 18.2018 3.1544C18.0875 2.87838 17.9199 2.62759 17.7087 2.41633C17.4974 2.20508 17.2466 2.0375 16.9706 1.92317C16.6946 1.80884 16.3988 1.75 16.1 1.75H13.65ZM13.65 10.5C13.0466 10.5 12.468 10.7397 12.0413 11.1663C11.6147 11.593 11.375 12.1716 11.375 12.775V16.975C11.375 17.5784 11.6147 18.157 12.0413 18.5837C12.468 19.0103 13.0466 19.25 13.65 19.25H16.1C16.3988 19.25 16.6946 19.1912 16.9706 19.0768C17.2466 18.9625 17.4974 18.7949 17.7087 18.5837C17.9199 18.3724 18.0875 18.1216 18.2018 17.8456C18.3162 17.5696 18.375 17.2738 18.375 16.975V12.775C18.375 12.4762 18.3162 12.1804 18.2018 11.9044C18.0875 11.6284 17.9199 11.3776 17.7087 11.1663C17.4974 10.9551 17.2466 10.7875 16.9706 10.6732C16.6946 10.5588 16.3988 10.5 16.1 10.5H13.65Z" fill="#DFDFDF"/>
</svg>
