<svg width="599" height="368" viewBox="0 0 599 368" fill="none" xmlns="http://www.w3.org/2000/svg">
<g clip-path="url(#clip0_23_2526)">
<path opacity="0.1" d="M599 236.358C599.01 246.328 597.803 256.263 595.404 265.941C594.597 269.202 593.66 272.396 592.592 275.521C591.285 279.379 589.771 283.164 588.056 286.859C587.191 288.728 586.277 290.56 585.314 292.355C585.33 302.579 583.223 312.696 579.125 322.065C571.718 338.876 558.51 352.468 541.908 360.365C531.528 365.312 520.184 367.913 508.684 367.985H113.71C96.1372 368.022 78.8675 363.411 63.6572 354.62L63.4233 354.488C61.2568 353.222 59.1445 351.881 57.0865 350.465C52.4561 347.27 48.1058 343.688 44.0825 339.758C38.6369 334.442 33.8385 328.504 29.7867 322.065C20.2703 306.973 15.2291 289.497 15.2467 271.661C5.60941 254.771 -0.0102539 234.539 -0.0102539 212.799C-0.0102539 185.369 8.92018 160.347 23.5923 141.405C26.6512 137.448 30.0018 133.724 33.6162 130.266C37.1824 126.843 41.0155 123.709 45.0793 120.894C48.3305 118.639 51.7285 116.603 55.2506 114.798C56.7204 114.052 58.1952 113.346 59.6955 112.69C61.0127 112.106 62.3451 111.563 63.6928 111.05C65.3101 110.437 66.9476 109.873 68.6056 109.358C70.2635 108.843 71.8994 108.393 73.5132 108.007C75.8865 107.428 78.3005 106.957 80.7552 106.595C82.7895 106.295 84.8238 106.087 86.858 105.929C88.4753 105.808 90.1078 105.741 91.7504 105.721H92.6404C94.4509 105.721 96.2513 105.792 98.0363 105.914C98.2245 105.538 98.4279 105.157 98.6161 104.787C99.3281 103.43 100.065 102.079 100.808 100.758C100.806 100.747 100.806 100.735 100.808 100.723C100.935 100.489 101.062 100.261 101.195 100.037C101.795 98.9552 102.42 97.8834 103.061 96.8217C103.356 96.3138 103.646 95.8363 103.946 95.3588C104.009 95.2402 104.079 95.1249 104.154 95.0134C104.46 94.5055 104.77 93.9975 105.085 93.4895C106.655 90.9836 108.287 88.5217 109.983 86.1038L110.415 85.4841C110.679 85.1082 110.923 84.7425 111.218 84.3666C111.92 83.3863 112.642 82.4008 113.37 81.4357C113.878 80.7449 114.387 80.0591 114.936 79.4039C116.258 77.7107 117.614 76.0175 119.005 74.3243C120.395 72.6311 121.839 70.9599 123.338 69.3108C123.541 69.0822 123.744 68.8587 123.958 68.6352L126.13 66.2681C126.236 66.1563 126.328 66.0548 126.43 65.9532C126.689 65.6738 126.938 65.3944 127.218 65.1252C128.382 63.8909 129.578 62.6819 130.778 61.4781C136.886 55.4016 143.393 49.7388 150.256 44.5275C150.525 44.3142 150.8 44.111 151.07 43.9078C152.361 42.9376 153.674 41.9776 154.986 41.0328C162.203 35.8615 169.747 31.1616 177.571 26.9623C178.11 26.6525 178.659 26.363 179.214 26.0785C186.228 22.372 193.442 19.0551 200.823 16.1429C204.845 14.5529 208.96 13.0595 213.1 11.6931C215.856 10.789 218.623 9.93053 221.425 9.12288C225.805 7.86314 230.216 6.73379 234.658 5.7348C247.743 2.80229 261.054 0.990768 274.448 0.319975C278.516 0.113405 282.631 0.00673562 286.791 -3.7146e-05C306.864 -0.0265799 326.859 2.49965 346.293 7.51773C346.494 7.82103 346.769 8.06828 347.092 8.23623C347.415 8.40418 347.775 8.4873 348.139 8.47777H349.848C350.591 8.68095 351.328 8.88414 352.07 9.09748C356.217 10.2895 360.304 11.5916 364.332 13.0037L365.349 13.3694C375.29 16.9002 384.963 21.1442 394.292 26.0683C402.701 30.4965 410.797 35.4929 418.525 41.0226C419.715 41.876 420.888 42.7361 422.044 43.603C423.448 42.7056 424.875 41.8455 426.326 41.0226C431.93 37.8349 437.882 35.3005 444.065 33.4693C456.992 29.6485 470.669 29.1142 483.855 31.9149C500.765 35.496 516.073 44.3853 528.436 57.0284C533.47 62.2013 537.951 67.8838 541.807 73.984C542.086 74.4208 542.366 74.8627 542.635 75.3097C545.949 80.7088 548.797 86.3794 551.149 92.2603C551.235 92.4787 551.322 92.6819 551.398 92.8952C553.569 98.4021 555.32 104.065 556.636 109.836C556.697 110.13 556.769 110.42 556.83 110.714C558.06 116.299 558.897 121.963 559.332 127.665C559.332 127.868 559.332 128.076 559.372 128.29C559.586 131.239 559.695 134.219 559.698 137.23C559.698 139.922 559.606 142.594 559.439 145.245C559.439 145.535 559.398 145.835 559.372 146.134C559.327 146.901 559.261 147.658 559.194 148.43C563.079 151.56 566.714 154.985 570.068 158.676C571.549 160.291 572.983 161.967 574.37 163.705C578.594 168.992 582.306 174.668 585.457 180.655C594.057 196.869 599 215.943 599 236.358Z" fill="#1C791C"/>
<path opacity="0.1" d="M541.532 358.486C541.532 361.955 529.565 365.206 508.684 368H113.71C96.1373 368.037 78.8676 363.426 63.6573 354.636L63.4233 354.504C69.4244 352.319 80.2569 350.282 95.0002 348.444L95.6614 348.362C102.273 347.555 109.662 346.788 117.738 346.061C117.942 346.061 118.15 346.031 118.354 346.005C124.762 345.437 131.578 344.903 138.803 344.405C139.032 344.405 139.256 344.365 139.485 344.355C142.272 344.155 145.116 343.965 148.018 343.786L149.137 343.715C170.268 342.404 194.288 341.358 220.337 340.667H220.367C224.015 340.565 227.702 340.476 231.428 340.398C235.571 340.299 239.765 340.213 244.01 340.139C247.25 340.067 250.53 340.017 253.821 339.966H253.897C268.742 339.742 284.08 339.631 299.764 339.631C338.548 339.631 375.205 340.337 407.687 341.607H407.779C412.773 341.8 417.676 342.013 422.456 342.231L426.525 342.424C431.919 342.682 437.174 342.958 442.29 343.252C502.454 346.671 541.532 352.223 541.532 358.486Z" fill="#1C791C"/>
<g opacity="0.2">
<path d="M345.968 337.299C345.951 337.847 345.888 338.392 345.78 338.93C342.24 338.367 338.68 337.86 335.1 337.406C335.1 337.264 335.1 337.116 335.1 336.969C335.133 335.446 335.572 333.959 336.371 332.661C337.419 331.005 339.01 329.969 340.765 330.025C342.52 330.081 344.04 331.214 344.981 332.926C345.693 334.27 346.033 335.78 345.968 337.299Z" fill="#006A44" fill-opacity="0.35"/>
<path d="M346.26 328.619C346.384 324.69 344.05 321.429 341.046 321.334C338.042 321.239 335.506 324.347 335.382 328.275C335.258 332.204 337.592 335.465 340.596 335.56C343.6 335.655 346.136 332.547 346.26 328.619Z" fill="#006A44" fill-opacity="0.35"/>
<path d="M346.537 319.923C346.662 315.994 344.327 312.733 341.324 312.638C338.32 312.543 335.784 315.651 335.66 319.579C335.535 323.508 337.87 326.769 340.874 326.864C343.877 326.959 346.413 323.851 346.537 319.923Z" fill="#006A44" fill-opacity="0.35"/>
<path d="M346.81 311.226C346.934 307.298 344.6 304.036 341.596 303.941C338.592 303.847 336.056 306.954 335.932 310.883C335.808 314.811 338.142 318.072 341.146 318.167C344.15 318.262 346.685 315.154 346.81 311.226Z" fill="#006A44" fill-opacity="0.35"/>
<path d="M347.082 302.529C347.206 298.601 344.872 295.34 341.868 295.245C338.864 295.15 336.329 298.258 336.204 302.186C336.08 306.114 338.414 309.376 341.418 309.471C344.422 309.566 346.958 306.458 347.082 302.529Z" fill="#006A44" fill-opacity="0.35"/>
<path d="M323.133 242.189C322.417 241.22 321.771 240.202 321.201 239.141L335.573 237.247L320.102 236.876C318.721 233.605 318.023 230.087 318.051 226.538C318.078 222.988 318.829 219.482 320.26 216.232L340.663 227.636L321.974 212.987C323.859 209.941 326.353 207.316 329.3 205.276C332.246 203.236 335.582 201.825 339.1 201.131C342.617 200.437 346.24 200.474 349.742 201.241C353.244 202.008 356.55 203.488 359.453 205.589C362.357 207.689 364.796 210.365 366.617 213.45C368.439 216.534 369.605 219.96 370.041 223.514C370.477 227.069 370.175 230.675 369.154 234.107C368.132 237.54 366.413 240.725 364.103 243.464C365.217 244.971 366.164 246.594 366.926 248.305L348.063 257.346L368.065 251.337C369.325 255.489 369.528 259.888 368.656 264.138C367.784 268.387 365.864 272.352 363.071 275.674C365.975 279.609 367.711 284.281 368.082 289.156C368.453 294.03 367.442 298.911 365.167 303.239C362.891 307.567 359.442 311.168 355.213 313.631C350.985 316.093 346.148 317.317 341.256 317.163C336.364 317.009 331.614 315.483 327.549 312.76C323.484 310.036 320.269 306.225 318.271 301.762C316.272 297.299 315.572 292.365 316.249 287.523C316.927 282.682 318.954 278.128 322.101 274.383C318.631 269.68 316.845 263.949 317.03 258.11C317.214 252.272 319.358 246.664 323.118 242.189H323.133Z" fill="#1C791C"/>
<path opacity="0.1" d="M369.174 259.754C368.996 265.596 366.845 271.207 363.071 275.674C365.975 279.609 367.711 284.281 368.082 289.156C368.453 294.03 367.442 298.911 365.167 303.239C362.891 307.567 359.442 311.168 355.213 313.631C350.985 316.093 346.148 317.317 341.256 317.163C336.364 317.009 331.614 315.483 327.549 312.76C323.484 310.036 320.269 306.225 318.271 301.762C316.272 297.299 315.572 292.365 316.249 287.523C316.927 282.682 318.954 278.128 322.101 274.383C318.759 269.847 369.265 256.833 369.174 259.754Z" fill="#141C18"/>
</g>
<g opacity="0.2">
<path d="M268.665 337.299C268.649 337.847 268.586 338.392 268.477 338.93C264.938 338.367 261.378 337.86 257.797 337.406C257.797 337.264 257.797 337.116 257.797 336.969C257.831 335.446 258.269 333.959 259.069 332.661C260.116 331.005 261.708 329.969 263.463 330.025C265.217 330.081 266.738 331.214 267.679 332.926C268.39 334.27 268.731 335.78 268.665 337.299Z" fill="#006A44" fill-opacity="0.35"/>
<path d="M268.952 328.621C269.076 324.693 266.742 321.431 263.738 321.336C260.734 321.242 258.198 324.349 258.074 328.278C257.95 332.206 260.284 335.467 263.288 335.562C266.292 335.657 268.828 332.549 268.952 328.621Z" fill="#006A44" fill-opacity="0.35"/>
<path d="M269.23 319.924C269.354 315.996 267.02 312.735 264.016 312.64C261.012 312.545 258.476 315.653 258.352 319.581C258.227 323.51 260.562 326.771 263.566 326.866C266.57 326.961 269.105 323.853 269.23 319.924Z" fill="#006A44" fill-opacity="0.35"/>
<path d="M269.502 311.228C269.626 307.3 267.292 304.038 264.288 303.943C261.284 303.849 258.748 306.956 258.624 310.885C258.5 314.813 260.834 318.074 263.838 318.169C266.842 318.264 269.378 315.156 269.502 311.228Z" fill="#006A44" fill-opacity="0.35"/>
<path d="M269.774 302.532C269.899 298.603 267.564 295.342 264.56 295.247C261.557 295.152 259.021 298.26 258.896 302.188C258.772 306.117 261.106 309.378 264.11 309.473C267.114 309.568 269.65 306.46 269.774 302.532Z" fill="#006A44" fill-opacity="0.35"/>
<path d="M245.831 242.189C245.115 241.22 244.469 240.202 243.898 239.141L258.27 237.247L242.8 236.876C241.419 233.605 240.721 230.087 240.748 226.538C240.775 222.988 241.527 219.482 242.958 216.232L263.361 227.636L244.671 212.987C246.557 209.941 249.051 207.316 251.997 205.276C254.944 203.236 258.28 201.825 261.797 201.131C265.315 200.437 268.937 200.474 272.439 201.241C275.941 202.008 279.248 203.488 282.151 205.589C285.055 207.689 287.494 210.365 289.315 213.45C291.137 216.534 292.302 219.96 292.739 223.514C293.175 227.069 292.873 230.675 291.851 234.107C290.83 237.54 289.111 240.725 286.801 243.464C287.915 244.971 288.861 246.594 289.624 248.305L270.761 257.346L290.763 251.337C292.022 255.489 292.225 259.888 291.353 264.138C290.481 268.387 288.562 272.352 285.769 275.674C288.673 279.609 290.409 284.281 290.78 289.156C291.15 294.03 290.14 298.911 287.864 303.239C285.589 307.567 282.139 311.168 277.911 313.631C273.682 316.093 268.846 317.317 263.954 317.163C259.061 317.009 254.311 315.483 250.247 312.76C246.182 310.036 242.967 306.225 240.968 301.762C238.97 297.299 238.27 292.365 238.947 287.523C239.624 282.682 241.652 278.128 244.799 274.383C241.329 269.68 239.543 263.949 239.728 258.11C239.912 252.272 242.056 246.664 245.816 242.189H245.831Z" fill="#1C791C"/>
<path opacity="0.1" d="M291.871 259.754C291.693 265.596 289.543 271.207 285.769 275.674C288.673 279.609 290.409 284.281 290.78 289.156C291.15 294.03 290.14 298.911 287.864 303.239C285.589 307.567 282.139 311.168 277.911 313.631C273.682 316.093 268.846 317.317 263.954 317.163C259.061 317.009 254.311 315.483 250.247 312.76C246.182 310.036 242.967 306.225 240.968 301.762C238.97 297.299 238.27 292.365 238.947 287.523C239.624 282.682 241.652 278.128 244.799 274.383C241.457 269.847 291.963 256.833 291.871 259.754Z" fill="#141C18"/>
</g>
<g opacity="0.2">
<path d="M479.823 342.856C479.784 343.894 479.66 344.927 479.451 345.945C472.636 344.857 465.772 343.886 458.859 343.029C458.859 342.755 458.859 342.475 458.859 342.191C458.924 339.257 459.77 336.394 461.311 333.896C463.345 330.711 466.396 328.715 469.768 328.816C473.14 328.918 476.074 331.107 477.905 334.404C479.286 337.001 479.948 339.918 479.823 342.856Z" fill="#006A44" fill-opacity="0.35"/>
<path d="M480.376 326.132C480.615 318.567 476.119 312.287 470.333 312.104C464.547 311.921 459.662 317.906 459.423 325.471C459.184 333.036 463.68 339.317 469.466 339.5C475.252 339.682 480.136 333.698 480.376 326.132Z" fill="#006A44" fill-opacity="0.35"/>
<path d="M480.904 309.39C481.144 301.825 476.647 295.544 470.861 295.361C465.076 295.179 460.191 301.164 459.952 308.729C459.712 316.294 464.209 322.575 469.995 322.757C475.781 322.94 480.665 316.955 480.904 309.39Z" fill="#006A44" fill-opacity="0.35"/>
<path d="M481.438 292.648C481.677 285.082 477.181 278.802 471.395 278.619C465.609 278.436 460.725 284.421 460.485 291.986C460.246 299.551 464.742 305.832 470.528 306.015C476.314 306.197 481.199 300.213 481.438 292.648Z" fill="#006A44" fill-opacity="0.35"/>
<path d="M481.37 275.143C481.598 267.574 477.089 261.298 471.3 261.124C465.512 260.951 460.635 266.946 460.407 274.515C460.18 282.084 464.688 288.36 470.477 288.534C476.266 288.707 481.143 282.712 481.37 275.143Z" fill="#006A44" fill-opacity="0.35"/>
<path d="M435.857 159.758C434.485 157.893 433.242 155.936 432.139 153.901L459.805 150.254L430.029 149.538C427.369 143.242 426.023 136.47 426.074 129.636C426.125 122.803 427.571 116.051 430.324 109.795L469.61 131.744L433.634 103.542C437.272 97.6925 442.077 92.6538 447.75 88.7402C453.422 84.8266 459.841 82.1219 466.606 80.7946C473.371 79.4673 480.338 79.5459 487.071 81.0255C493.804 82.5051 500.16 85.354 505.743 89.3947C511.326 93.4353 516.015 98.5811 519.52 104.511C523.024 110.442 525.268 117.029 526.112 123.864C526.955 130.698 526.381 137.633 524.423 144.235C522.466 150.838 519.168 156.968 514.736 162.242C516.878 165.144 518.701 168.27 520.172 171.563L483.855 188.981L522.359 177.399C524.786 185.381 525.181 193.842 523.509 202.015C521.836 210.188 518.15 217.816 512.783 224.207C518.372 231.784 521.714 240.778 522.427 250.162C523.14 259.546 521.194 268.941 516.813 277.272C512.432 285.604 505.791 292.536 497.652 297.276C489.512 302.016 480.201 304.372 470.783 304.076C461.366 303.779 452.222 300.841 444.397 295.599C436.572 290.356 430.382 283.02 426.535 274.429C422.688 265.839 421.339 256.34 422.642 247.02C423.945 237.699 427.848 228.933 433.904 221.724C427.229 212.67 423.792 201.639 424.146 190.401C424.5 179.163 428.625 168.369 435.857 159.753V159.758Z" fill="#1C791C"/>
<path opacity="0.1" d="M524.5 193.567C524.166 204.808 520.045 215.607 512.803 224.218C518.392 231.794 521.735 240.788 522.447 250.172C523.16 259.556 521.214 268.951 516.833 277.283C512.452 285.614 505.812 292.546 497.672 297.286C489.532 302.026 480.221 304.382 470.803 304.086C461.386 303.789 452.242 300.852 444.417 295.609C436.592 290.367 430.402 283.03 426.555 274.44C422.708 265.849 421.359 256.35 422.662 247.03C423.965 237.709 427.868 228.943 433.924 221.734C427.445 212.992 524.678 187.944 524.5 193.567Z" fill="#141C18"/>
</g>
<path d="M80.262 343.75L85.5968 343.735H93.1185L102.629 189.427L196.81 32.4533L192.716 28.0646V16.9504L90.8605 185.79L80.262 343.75Z" fill="#504D4D"/>
<path opacity="0.1" d="M86.1665 343.735H93.1186L102.629 189.428L196.81 32.4535L192.716 28.0647L95.5699 187.076L86.1665 343.735Z" fill="#141C18"/>
<path d="M64.5422 345.035L308.578 363.688L308.786 363.703L544.96 349.196L545.138 349.185V339.224L284.904 334.455L67.792 334.246H66.2052L66.0323 335.364L64.5422 345.035Z" fill="#504D4D"/>
<path opacity="0.1" d="M64.5422 345.035L308.578 363.688L308.786 363.703L544.96 349.196L545.138 349.002V339.433H544.929L308.578 347.316L67.792 334.246H67.7564L67.3292 334.526L66.0323 335.364L64.5422 345.035Z" fill="#141C18"/>
<path opacity="0.1" d="M64.5422 345.035L308.578 363.687V347.316L67.3292 334.526L66.0323 335.364L64.5422 345.035Z" fill="#141C18"/>
<path d="M192.686 27.8564L300.273 143.193L296.947 346.072L306.086 347.174L306.239 347.194H315.378L316.471 151.905L517.929 219.118L521.327 338.792L528.681 339.615L531.172 339.895L525.405 210.818L314.808 136.971L199.333 17.0674H192.686V27.8564Z" fill="#504D4D"/>
<path opacity="0.1" d="M315.642 148.171L316.471 151.905L517.929 219.118L521.327 338.792L528.68 339.615L522.913 216.629L315.642 148.171Z" fill="#141C18"/>
<path opacity="0.1" d="M192.686 27.8564L300.273 143.193L296.947 346.072L306.086 347.174L308.578 136.554L192.686 17.0674V27.8564Z" fill="#141C18"/>
<path d="M316.033 229.592L389.923 244.124L389.949 244.129L519.363 269.593L525.288 267.221L525.268 266.805L524.881 258.55L316.11 216.415L316.033 229.592Z" fill="#504D4D"/>
<path opacity="0.1" d="M389.949 244.129L519.364 269.593L525.288 267.221L525.268 266.805L389.949 244.129Z" fill="#141C18"/>
<path d="M394.897 178.07L396.896 287.961L397.928 344.339L407.026 344.035L412.753 343.842L410.973 179.659L407.026 178.349L406.162 178.07H394.897Z" fill="#504D4D"/>
<path opacity="0.1" d="M394.978 178.044V178.07L396.896 287.961L397.928 344.339L407.026 344.035V178.044H394.978Z" fill="#141C18"/>
<path d="M252.381 206.134C252.915 206.424 253.425 206.755 253.907 207.125C254.477 207.623 254.988 208.184 255.433 208.796C257.614 211.615 259.628 214.891 259.415 218.447C259.419 218.964 259.322 219.478 259.127 219.957C258.932 220.437 258.645 220.873 258.281 221.241C257.381 222.008 256.089 222.044 254.909 222.044C253.627 222.044 252.28 222.044 251.171 221.383C250.062 220.723 249.137 219.438 247.825 219.468C247.639 219.499 247.45 219.499 247.265 219.468C246.813 219.321 246.721 218.727 246.426 218.351C245.917 217.675 244.844 217.843 244.046 218.137C243.247 218.432 242.363 218.874 241.574 218.534C241.117 218.292 240.743 217.919 240.501 217.462C238.614 214.414 238.213 210.752 237.857 207.211C237.638 205.057 235.97 197.712 240.572 199.384C242.607 200.115 244.509 201.578 246.36 202.65L252.381 206.134Z" fill="#006A44" fill-opacity="0.35"/>
<path d="M247.835 206.861C248.246 207.156 248.744 207.305 249.25 207.285C249.756 207.265 250.241 207.076 250.627 206.749C251.384 206.065 251.867 205.13 251.985 204.118C252.493 203.96 252.753 204.626 253.078 205.032C253.648 205.723 254.807 205.713 255.326 206.449C255.687 206.957 255.606 207.663 255.86 208.237C256.19 208.979 257.009 209.365 257.569 209.964C258.097 210.619 258.478 211.38 258.688 212.194L259.522 214.693C259.921 215.733 260.177 216.821 260.284 217.929C260.337 218.483 260.279 219.042 260.113 219.573C259.947 220.104 259.677 220.597 259.318 221.022C258.199 222.226 256.363 222.353 254.741 222.318C254.199 222.329 253.658 222.266 253.134 222.13C251.695 221.683 250.774 220.235 250.393 218.777C250.011 217.319 250.052 215.791 249.828 214.297C249.587 212.83 249.159 211.4 248.557 210.04C248.109 208.984 246.879 207.409 246.899 206.287C247.265 206.287 247.53 206.622 247.835 206.861Z" fill="#006A44" fill-opacity="0.35"/>
<path d="M249.66 201.715C249.423 200.994 249.284 200.244 249.249 199.485C249.249 197.961 249.945 196.529 250.647 195.167L244.834 195.955C244.132 196.051 243.349 196.194 242.952 196.778C242.802 197.067 242.723 197.389 242.723 197.715C242.723 198.041 242.802 198.363 242.952 198.652C243.244 199.232 243.476 199.839 243.644 200.465C243.657 201.014 243.72 201.559 243.832 202.096C244.013 202.49 244.267 202.847 244.58 203.147C246.243 204.986 247.489 207.155 248.73 209.304C248.694 209.243 252.234 206.505 252.091 205.611C252.01 205.103 250.988 204.494 250.662 204.006C250.213 203.298 249.875 202.525 249.66 201.715Z" fill="#BE6F72"/>
<path d="M299.5 181.869V186.873L213.72 203.584L209.27 206.276H193.917V203.457L278.196 183.119L299.5 181.869Z" fill="#504D4D"/>
<path opacity="0.1" d="M299.5 186.873L213.72 203.584L209.27 206.277H193.917L278.822 188.127L299.5 186.873Z" fill="#141C18"/>
<path d="M230.63 323.904C229.674 322.748 228.355 321.949 226.887 321.638C225.418 321.326 223.888 321.52 222.544 322.187C222.256 322.323 222.002 322.521 221.801 322.766C221.293 323.478 221.618 324.458 221.664 325.337C221.781 327.48 220.072 329.223 218.536 330.721C217.712 331.524 216.873 332.382 216.502 333.474C216.131 334.566 216.405 335.953 217.402 336.522C217.837 336.74 218.31 336.871 218.796 336.908C220.421 337.225 222.088 337.271 223.729 337.045C225.351 336.735 226.943 335.816 227.645 334.323C227.78 333.918 228.004 333.548 228.301 333.241C229.196 332.534 230.569 333.362 231.586 332.86C232.425 332.443 232.461 331.788 232.471 330.924C232.502 328.537 232.146 325.835 230.63 323.904Z" fill="#1C791C"/>
<path d="M242.835 323.813C243.461 325.459 243.547 327.252 243.629 329.009C243.675 330.025 243.705 331.112 243.156 331.971C242.607 332.829 241.534 333.281 240.506 333.494C238.386 333.931 235.929 333.52 234.561 331.839C233.513 330.553 233.295 328.791 233.488 327.125C233.651 325.758 233.997 324.158 233.015 323.188C232.761 322.929 232.43 322.746 232.196 322.467C231.688 321.847 231.769 320.912 232.044 320.15C232.401 319.422 232.669 318.653 232.842 317.86C232.883 317.484 239.728 318.124 240.359 318.434C241.218 318.855 241.086 319.561 241.345 320.415C241.706 321.603 242.398 322.675 242.835 323.813Z" fill="#1C791C"/>
<path d="M244.092 250.84C245.434 251.708 245.953 253.415 246.162 255C246.736 259.343 245.729 263.732 245.653 268.115C245.582 274.257 247.362 280.509 245.841 286.458C244.931 290.013 245.704 294.077 244.85 297.668C244.595 298.735 244.127 299.741 243.883 300.807C243.375 303.119 243.909 305.537 244.626 307.797C244.855 308.406 245 309.044 245.058 309.692C245.024 310.689 244.77 311.667 244.316 312.557L241.264 319.764C240.923 320.572 239.581 320.704 238.721 320.811C237.104 321.004 235.299 321.141 234.012 320.14C232.725 319.14 232.415 317.463 232.217 315.899C231.836 312.895 231.666 309.869 231.708 306.842C231.764 306.052 231.694 305.258 231.5 304.49C231.22 303.622 230.605 302.87 230.437 301.95C230.223 300.762 230.828 299.593 231.052 298.395C231.206 297.3 231.188 296.188 231.001 295.098C230.803 293.473 230.574 291.847 230.315 290.232C229.949 287.971 230.472 285.741 230.823 283.476C231.154 281.348 230.732 279.179 230.315 277.066C230.351 278.781 230.137 280.492 229.679 282.145C229.409 282.953 229.023 283.725 228.789 284.548C227.746 288.241 229.969 292.116 229.654 295.941C229.506 297.729 228.804 299.497 229.003 301.26C229.14 302.55 229.74 303.733 230.152 304.963C230.564 306.192 230.777 307.599 230.152 308.747C228.499 311.866 229.735 316.107 231.215 319.307C231.515 319.875 231.777 320.462 231.998 321.065C232.435 322.507 232.069 324.057 232.186 325.56C231.76 325.63 231.324 325.602 230.911 325.477C230.497 325.353 230.118 325.137 229.801 324.844C229.577 324.61 229.394 324.336 229.175 324.092C228.564 323.511 227.841 323.059 227.05 322.766C226.585 322.507 226.056 322.385 225.524 322.416C224.965 322.572 224.462 322.884 224.075 323.315C223.572 323.757 223.038 324.163 222.478 324.529C222.239 324.712 221.96 324.836 221.664 324.89C221.515 324.913 221.363 324.888 221.229 324.82C221.094 324.752 220.985 324.643 220.916 324.509C220.885 324.424 220.866 324.335 220.86 324.245C220.672 322.711 220.571 321.167 220.56 319.622C220.56 316.966 217.377 315.137 216.975 312.511C216.655 310.393 217.25 308.234 217.051 306.1C216.955 305.003 216.649 303.926 216.67 302.829C216.67 302.118 216.833 301.422 216.889 300.716C216.935 299.932 216.923 299.146 216.853 298.364L216.695 295.911C216.543 293.488 216.375 291.014 215.419 288.799C214.285 286.213 213.614 283.449 213.435 280.631C213.334 278.854 213.4 277.076 213.196 275.293C213.013 273.683 212.606 272.082 212.723 270.467C212.82 269.218 213.232 268.009 213.329 266.759C213.527 264.356 212.611 262.02 211.894 259.719C211.177 257.418 210.648 254.868 211.589 252.648C211.724 252.284 211.948 251.959 212.24 251.703C212.601 251.465 213.011 251.312 213.44 251.256C222.166 249.425 231.11 248.856 239.998 249.565C241.447 249.647 242.853 250.085 244.092 250.84Z" fill="#006A44" fill-opacity="0.35"/>
<path d="M215.22 196.889C219.72 196.889 223.367 193.246 223.367 188.752C223.367 184.258 219.72 180.615 215.22 180.615C210.721 180.615 207.073 184.258 207.073 188.752C207.073 193.246 210.721 196.889 215.22 196.889Z" fill="#BE6F72"/>
<path d="M213.644 198.916C213.761 199.381 213.761 199.868 213.644 200.333C213.516 200.658 213.335 200.96 213.11 201.227C212.321 202.243 211.448 203.192 210.501 204.062C210.983 205.139 211.853 205.996 212.937 206.464C214.013 206.922 215.142 207.244 216.298 207.424C216.875 207.576 217.476 207.617 218.068 207.546C218.614 207.409 219.131 207.175 219.594 206.855L224.12 204.148C224.803 203.779 225.436 203.323 226.002 202.792C226.832 201.94 227.302 200.801 227.314 199.612C227.335 199.399 227.277 199.186 227.151 199.013C226.978 198.862 226.76 198.771 226.531 198.754C224.939 198.403 223.683 197.113 222.971 195.65C222.327 194.15 221.911 192.563 221.735 190.941L216.909 193.481C216.192 193.862 215.48 194.243 214.737 194.573C214.264 194.786 213.308 194.964 212.972 195.396C212.332 196.193 213.476 197.956 213.644 198.916Z" fill="#BE6F72"/>
<path d="M210.531 202.584C209.844 203.146 209.308 203.871 208.97 204.692C208.655 205.708 208.97 206.779 209.255 207.785C210.59 212.072 211.609 216.45 212.306 220.885C212.733 223.933 212.891 227.027 213.1 230.11C213.527 236.398 214.147 246.426 214.976 252.673C218.028 252.811 221.003 251.922 224.029 251.597C229.684 250.997 235.507 252.369 241.045 251.089C239.703 245.791 238.36 236.744 237.017 231.451C236.423 229.366 236.012 227.233 235.787 225.076C235.67 223.527 235.741 221.972 235.761 220.413C235.807 217.365 235.639 214.318 235.471 211.27C235.278 207.714 235.085 204.158 234.241 200.679C234.182 200.235 233.974 199.825 233.651 199.516C233.142 199.145 232.481 199.277 231.876 199.358C230.023 199.593 228.147 199.149 226.597 198.109C225.926 197.651 225.025 197.093 224.4 197.601C224.133 197.907 223.957 198.282 223.891 198.683C223.615 199.401 223.187 200.052 222.638 200.593C222.089 201.133 221.431 201.551 220.708 201.817C219.258 202.341 217.741 202.652 216.202 202.741C215.731 202.842 215.24 202.787 214.803 202.584C214.081 202.142 214.03 200.552 213.12 200.445C212.321 200.354 211.07 202.071 210.531 202.584Z" fill="#006A44" fill-opacity="0.35"/>
<path d="M222.564 214.988C220.687 213.195 219.864 210.594 218.496 208.384C217.564 206.899 216.374 205.591 214.981 204.524C214.281 204.062 213.639 203.518 213.069 202.904C212.586 202.309 212.22 201.517 211.487 201.288C211.185 201.222 210.871 201.231 210.572 201.313C210.274 201.396 210 201.549 209.774 201.761C209.325 202.187 208.901 202.638 208.502 203.112C206.346 205.342 202.557 205.652 200.848 208.232C200.387 208.779 200.074 209.435 199.938 210.137C199.446 213.893 200.418 217.693 202.654 220.753C203.087 221.462 203.751 222.001 204.535 222.277C204.429 223.224 204.555 224.183 204.902 225.071C205.843 228.286 207 231.434 208.365 234.493C208.039 235.69 207.811 236.912 207.683 238.146C207.327 241.249 207.658 244.399 207.322 247.507C207.048 250.047 206.305 252.521 206.28 255.066C206.28 255.472 206.315 255.955 206.666 256.163C206.853 256.259 207.062 256.303 207.271 256.29L213.527 256.478C217.158 256.585 220.825 256.691 224.4 256.021C224.876 255.95 225.338 255.805 225.768 255.589C226.978 254.913 227.38 253.389 227.573 252.033C227.826 250.274 227.926 248.496 227.873 246.72C228.631 249.112 229.531 251.586 231.82 252.622C233.03 253.171 234.414 253.13 235.741 253.095C238.602 252.968 241.453 252.674 244.28 252.216C244.454 252.238 244.631 252.218 244.796 252.159C244.962 252.1 245.111 252.004 245.232 251.877C245.353 251.75 245.443 251.596 245.494 251.429C245.545 251.261 245.556 251.083 245.526 250.911L245.556 248.137C245.617 242.504 244.219 237.12 243.675 231.512C243.502 229.744 243.517 227.956 243.085 226.224C242.907 225.498 242.647 224.786 242.49 224.055C242.354 223.339 242.269 222.614 242.235 221.886L241.839 216.298C241.651 213.713 241.381 211.219 241.183 208.638C241.074 206.126 240.709 203.631 240.094 201.192C239.652 199.668 238.731 197.941 237.14 197.753C236.29 197.656 235.466 198.027 234.658 198.286C232.67 198.911 230.537 198.902 228.555 198.261C227.943 198.019 227.304 197.849 226.653 197.753C226.325 197.708 225.991 197.752 225.686 197.878C225.38 198.005 225.113 198.211 224.914 198.474C224.716 198.871 224.624 199.312 224.644 199.754C224.405 204.829 223.963 210.056 222.564 214.988Z" fill="#1C791C"/>
<path d="M214.381 215.14C212.037 212.672 209.631 210.157 206.61 208.588C205.42 207.968 204.068 207.501 202.75 207.734C201.433 207.968 200.208 209.111 200.269 210.447C200.309 211.275 200.813 212.006 200.97 212.819C201.153 213.733 200.889 214.709 201.174 215.592C201.405 216.175 201.751 216.705 202.191 217.152L205.792 221.414C207.317 223.191 208.843 224.995 210.806 226.224C212.769 227.453 215.312 228.027 217.468 227.154C219.002 226.441 220.278 225.272 221.12 223.806C222.015 222.384 222.645 220.829 223.485 219.361C224.791 217.016 226.514 214.928 228.57 213.2C227.512 212.926 226.185 212.54 225.519 211.676C225.329 211.402 225.167 211.109 225.036 210.802L224.212 209.025C223.932 209.01 223.651 209.053 223.389 209.152C223.126 209.251 222.887 209.403 222.686 209.599C222.333 210.006 221.954 210.392 221.552 210.752C220.835 211.29 219.864 211.437 219.213 212.052C218.961 212.316 218.733 212.601 218.531 212.905C218.039 213.552 217.414 214.085 216.698 214.471C215.982 214.856 215.192 215.085 214.381 215.14Z" fill="#006A44" fill-opacity="0.35"/>
<path d="M228.758 204.519C230.523 201.304 230.442 197.448 230.945 193.816C231 192.854 231.338 191.93 231.917 191.16C232.934 190.012 234.729 189.996 236.265 190.144C236.717 190.195 237.282 190.408 237.257 190.86C237.221 191.022 237.142 191.171 237.028 191.292C235.539 193.211 234.664 195.533 234.515 197.956C235.314 198.51 236.55 197.372 237.318 197.956C237.826 198.383 237.592 199.226 237.287 199.836C236.578 201.248 235.848 202.65 235.095 204.041C234.494 205.268 233.711 206.397 232.771 207.389C232.125 208.009 231.367 208.496 230.711 209.106C229.186 210.533 228.265 212.55 226.689 213.942C226.555 214.086 226.375 214.178 226.18 214.201C225.979 214.186 225.79 214.102 225.646 213.962C224.858 213.322 224.205 212.533 223.724 211.641C223.124 210.533 223.215 210.208 224.161 209.426C225.931 208.029 227.655 206.53 228.758 204.519Z" fill="#BE6F72"/>
<path d="M211.432 212.956C211.737 213.144 212.113 213.357 212.449 213.2C212.586 213.117 212.702 213.004 212.789 212.87C213.371 212.095 213.856 211.252 214.234 210.361C214.299 210.235 214.335 210.096 214.341 209.954C214.341 209.629 214.051 209.39 213.781 209.202C212.337 208.283 210.784 207.546 209.158 207.008C207.816 206.5 206.412 206.058 204.988 206.185C204.453 206.221 203.931 206.365 203.453 206.607C202.975 206.85 202.551 207.187 202.206 207.597C201.189 208.903 202.893 209.299 203.961 209.771C206.432 210.894 209.107 211.544 211.432 212.956Z" fill="#1C791C"/>
<path opacity="0.1" d="M209.83 221.592C209.812 221.707 209.823 221.826 209.86 221.937C209.897 222.048 209.96 222.149 210.043 222.232C210.191 221.51 209.997 220.748 210.15 220.022C210.374 218.93 211.437 218.107 211.528 217.01C209.58 216.629 209.845 220.413 209.83 221.592Z" fill="#141C18"/>
<path opacity="0.2" d="M299.5 181.869V186.873L278.822 188.127L278.196 183.119L299.5 181.869Z" fill="#141C18"/>
<path d="M207.887 189.961C209.179 188.909 208.431 186.705 209.306 185.293C209.814 184.521 210.674 184.114 211.518 183.769C212.537 183.293 213.628 182.99 214.747 182.875C215.308 182.821 215.873 182.894 216.401 183.088C216.93 183.283 217.407 183.593 217.799 183.997C218.129 184.373 218.353 184.83 218.663 185.222C219.047 185.678 219.548 186.022 220.112 186.217C220.676 186.412 221.283 186.45 221.867 186.329C222.544 186.177 223.245 185.663 223.2 184.973C223.123 184.552 222.909 184.17 222.589 183.886L221.135 182.275C219.482 180.447 217.646 178.506 215.22 178.049C213.532 177.729 211.803 178.181 210.175 178.725C209.519 178.943 208.782 179.268 208.599 179.934C208.477 180.391 208.66 180.889 208.553 181.351C208.344 182.27 207.165 182.58 206.615 183.352C206.066 184.124 206.234 185.039 206.076 185.892C205.919 186.745 205.461 187.578 205.405 188.462C205.369 188.996 205.639 189.986 206.239 190.179C206.839 190.372 207.516 189.326 207.887 189.961Z" fill="#006A44" fill-opacity="0.35"/>
<path d="M222.707 184.241C222.278 182.006 221.353 179.896 220.001 178.064C218.799 176.353 217.126 175.027 215.185 174.245C214.215 173.866 213.171 173.712 212.133 173.794C211.094 173.875 210.088 174.191 209.189 174.717C207.855 175.668 206.816 176.977 206.193 178.491C204.876 181.326 204.388 184.79 205.919 187.513C206.529 186.771 207.577 187.106 208.502 186.837C209.662 186.507 210.643 185.735 211.747 185.252C215.078 183.784 219.147 184.973 222.707 184.241Z" fill="#FED253"/>
<path opacity="0.1" d="M206.697 184.084C206.58 183.169 206.504 182.108 207.155 181.458C207.187 181.418 207.228 181.386 207.275 181.365C207.322 181.344 207.373 181.334 207.424 181.336C207.469 181.35 207.511 181.374 207.547 181.406C207.583 181.437 207.612 181.476 207.633 181.519C208.008 182.111 208.328 182.737 208.589 183.388C208.21 183.301 207.813 183.329 207.45 183.469C207.088 183.61 206.776 183.856 206.554 184.175" fill="#141C18"/>
<path opacity="0.1" d="M218.582 181.503L218.399 179.69C218.369 179.541 218.382 179.386 218.435 179.243C218.511 179.123 218.63 179.036 218.767 178.999C218.904 178.961 219.05 178.976 219.177 179.04C219.427 179.178 219.633 179.384 219.772 179.634C220.195 180.283 220.547 180.976 220.82 181.702C220.001 181.544 219.158 181.554 218.343 181.732" fill="#141C18"/>
<path opacity="0.1" d="M223.134 255.101V259.246L219.63 259.48H201.199V255.101H223.134Z" fill="#141C18"/>
<path d="M223.134 255.101V259.48H201.199L142.927 186.573V183.129H155.143L223.134 255.101Z" fill="#504D4D"/>
<path opacity="0.1" d="M223.134 255.101V259.48H201.199L142.927 186.573V183.129H155.143L223.134 255.101Z" fill="#141C18"/>
<path opacity="0.1" d="M223.134 255.101V259.48H201.199L142.927 186.573V183.129L201.514 255.101H223.134Z" fill="#141C18"/>
<path d="M150.566 328.176C150.605 328.382 150.6 328.594 150.553 328.798C150.505 329.002 150.417 329.194 150.291 329.363C150.166 329.531 150.008 329.672 149.826 329.776C149.644 329.88 149.442 329.946 149.234 329.969C147.82 330.447 146.32 330.919 145.318 332.001C144.316 333.083 144.118 335.089 145.318 335.968C145.931 336.338 146.636 336.529 147.352 336.522C149.656 336.679 152.056 336.649 154.147 335.674C155.642 334.983 157.051 333.804 158.693 333.911C159.543 333.962 160.448 334.358 161.206 333.972C161.963 333.586 162.177 332.509 162.182 331.61C162.201 329.733 161.918 327.865 161.343 326.078C161.267 325.834 158.032 325.646 157.646 325.57L153.725 325.062C152.982 324.966 151.38 324.407 150.795 325.027C150.21 325.646 150.566 327.44 150.566 328.176Z" fill="#1C791C"/>
<path d="M173.965 315.498C174.131 316.412 174.401 317.305 174.769 318.159C175.313 319.541 176.01 321.009 177.342 321.679C178.553 322.284 180.038 322.065 181.268 321.491C181.782 321.279 182.232 320.938 182.575 320.501C182.972 319.81 183.15 319.014 183.084 318.22C183.084 316.254 182.967 314.223 182.067 312.475C181.294 310.951 179.946 309.641 179.926 307.954L175.293 308.848C175.045 308.872 174.808 308.965 174.611 309.118C174.464 309.272 174.362 309.463 174.316 309.671C173.822 311.572 173.702 313.551 173.965 315.498Z" fill="#1C791C"/>
<path d="M118.639 267.242C118.445 268.877 118.527 270.63 119.381 272.042C120.235 273.454 122.036 274.389 123.592 273.825C123.672 273.804 123.747 273.768 123.812 273.719C123.878 273.669 123.932 273.606 123.973 273.535C124.015 273.364 123.991 273.183 123.907 273.027C123.22 271.196 123.277 269.169 124.065 267.379C124.167 267.145 124.385 266.871 124.624 266.962C124.724 267.013 124.805 267.095 124.853 267.196C125.099 267.621 125.223 268.107 125.209 268.598C125.137 269.043 125.124 269.495 125.169 269.944C125.265 270.381 125.733 270.792 126.14 270.604C126.258 270.532 126.359 270.437 126.439 270.324C126.518 270.212 126.574 270.084 126.603 269.949C127.737 266.673 127.223 263.092 126.704 259.663C126.709 259.584 126.696 259.505 126.666 259.432C126.637 259.359 126.592 259.293 126.534 259.24C126.476 259.186 126.407 259.145 126.332 259.121C126.257 259.097 126.178 259.089 126.099 259.099C123.699 258.86 122.387 258.286 121.014 260.516C119.834 262.396 118.639 264.981 118.639 267.242Z" fill="#1C791C"/>
<path d="M146.701 258.906C145.989 261.862 145.272 264.854 145.226 267.892C145.239 269.784 145.382 271.673 145.654 273.545L146.188 277.944C146.371 279.427 146.549 280.906 146.808 282.374C146.973 283.13 147.064 283.901 147.078 284.675C147.028 285.438 146.907 286.194 146.716 286.935C146.397 288.49 146.218 290.072 146.182 291.659C146.126 294.199 146.442 296.739 146.64 299.278C147.036 304.34 146.977 309.426 146.462 314.476C146.257 315.84 146.553 317.231 147.296 318.393C147.598 318.759 147.846 319.166 148.034 319.602C148.415 320.765 147.525 321.928 147.296 323.122C147.15 324.053 147.379 325.004 147.934 325.765C148.489 326.527 149.324 327.038 150.256 327.186C154.325 327.668 158.505 327.45 162.172 329.309C162.558 328.181 161.714 326.901 162.101 325.753C162.345 325.042 163.016 324.58 163.474 323.98C164.089 323.067 164.395 321.981 164.348 320.882C164.366 319.447 164.111 318.021 163.596 316.681C163.163 315.564 162.543 314.461 162.579 313.262C162.579 312.673 162.787 312.054 162.548 311.51C162.384 311.198 162.161 310.92 161.892 310.692C160.372 309.029 159.438 306.915 159.232 304.673C159.034 302.448 159.106 300.206 159.446 297.998C159.695 295.895 160.031 293.676 161.368 292.035C160.748 287.06 161.113 282.012 162.441 277.177C162.574 276.73 162.782 276.212 163.24 276.105C163.422 276.087 163.605 276.112 163.775 276.179C163.945 276.246 164.096 276.354 164.216 276.491C165.015 277.238 165.396 278.32 165.742 279.356C166.123 280.479 166.51 281.678 166.22 282.826C166.098 283.334 165.854 283.781 165.711 284.268C165.402 285.248 165.456 286.307 165.864 287.25C166.063 287.595 166.187 287.977 166.23 288.373C166.183 288.712 166.08 289.042 165.925 289.348C165.736 289.949 165.676 290.583 165.749 291.209C165.822 291.834 166.026 292.438 166.347 292.98C166.995 294.058 167.795 295.039 168.722 295.89C168.279 297.84 168.394 299.875 169.053 301.762C169.1 301.847 169.131 301.941 169.142 302.038C169.153 302.134 169.145 302.232 169.119 302.326C169.027 302.519 168.793 302.59 168.61 302.727C168.102 303.144 168.417 303.931 168.758 304.475C169.692 305.967 170.723 307.395 171.845 308.752C172.862 309.966 172.77 312.308 174.286 312.744C174.923 312.882 175.582 312.882 176.218 312.744C177.714 312.516 179.382 312.084 180.114 310.763C180.414 310.22 180.536 309.559 181.004 309.153C181.472 308.747 182.077 308.676 182.336 308.188C182.596 307.7 182.306 307.06 182.392 306.496C182.479 305.933 182.972 305.481 183.13 304.886C183.506 303.515 181.904 302.387 181.685 300.985C181.37 298.953 183.933 297.429 183.827 295.398C183.603 290.983 183.46 286.549 183.232 282.135C182.944 278.181 182.904 274.213 183.109 270.254C183.287 267.79 183.618 265.21 182.713 262.919C181.411 259.688 177.82 257.875 174.347 257.529C170.873 257.184 167.41 258.007 163.967 258.545C158.253 259.425 152.447 259.546 146.701 258.906Z" fill="#006A44" fill-opacity="0.35"/>
<path d="M157.025 210.355C161.525 210.355 165.172 206.712 165.172 202.218C165.172 197.724 161.525 194.08 157.025 194.08C152.526 194.08 148.878 197.724 148.878 202.218C148.878 206.712 152.526 210.355 157.025 210.355Z" fill="#FBBEBE"/>
<path d="M153.709 211.874C153.432 212.518 152.967 213.063 152.374 213.437C151.781 213.812 151.089 213.998 150.388 213.972C150.093 215.191 150.8 216.42 151.609 217.38C153.288 219.332 155.458 220.801 157.895 221.636C160.332 222.471 162.947 222.641 165.472 222.13C166.455 221.954 167.387 221.566 168.203 220.992C169.304 220.074 170.043 218.796 170.288 217.385C170.522 215.984 170.589 214.561 170.487 213.144C170.515 212.864 170.435 212.584 170.263 212.362C170.06 212.204 169.808 212.122 169.551 212.128C167.832 211.976 166.037 211.91 164.526 211.066C163.016 210.223 161.943 208.318 162.67 206.754C162.553 206.998 159.583 207.115 159.191 207.165C157.966 207.338 156.74 207.531 155.52 207.755C154.933 207.787 154.353 207.896 153.796 208.08C153.058 208.461 153.333 208.273 153.506 208.964C153.765 210.02 154.146 210.777 153.709 211.874Z" fill="#FBBEBE"/>
<path d="M159.909 216.822C158.811 216.834 157.717 216.713 156.649 216.461C155.57 216.21 154.62 215.576 153.974 214.678C153.597 214.109 153.353 213.393 152.753 213.073C151.772 212.565 150.653 213.423 149.87 214.211C149.156 214.987 148.33 215.652 147.418 216.182C146.33 216.756 145.058 216.959 144.031 217.634C143.229 218.24 142.54 218.983 141.997 219.829L134.791 229.632C131.897 233.574 129.379 237.805 126.801 241.966C124.568 245.567 123.399 249.712 121.715 253.598C121.582 253.836 121.527 254.109 121.558 254.38C121.619 254.644 121.939 254.858 122.163 254.705C121.405 255.457 122.071 256.737 121.893 257.794C121.691 258.533 121.269 259.193 120.683 259.688C121.802 259.542 122.939 259.596 124.039 259.846C125.177 260.168 126.251 260.683 127.213 261.37C127.828 261.273 127.772 260.181 128.23 259.775C128.505 259.536 128.911 259.566 129.273 259.495C130.63 259.231 131.17 257.601 132.212 256.681C133.082 255.914 134.312 255.665 135.233 254.944C136.728 253.771 137.049 251.683 137.832 249.951C138.498 248.483 139.546 247.203 140.13 245.699C140.512 244.724 140.695 243.667 141.239 242.768C142.109 241.315 143.746 240.543 145.308 239.847C146.294 239.406 147.342 238.948 148.405 239.019C148.349 241.381 148.049 243.708 148.562 246.014C148.74 246.827 148.99 247.619 149.203 248.427C150.175 252.064 150.404 255.853 150.449 259.602C152.786 259.068 155.172 258.782 157.569 258.749C159.456 258.693 161.338 258.936 163.224 258.901C165.462 258.86 167.674 258.428 169.912 258.276C172.15 258.124 174.489 258.276 176.468 259.292C176.307 256.073 176.397 252.846 176.737 249.641L177.276 244.592C177.398 243.125 177.624 241.668 177.953 240.233C178.248 239.075 178.675 237.958 179 236.805C180.144 232.741 179.936 228.403 179.717 224.172C179.605 221.998 178.766 219.859 177.78 217.924C177.423 217.205 177.015 216.513 176.559 215.852C175.367 214.211 173.778 212.898 171.941 212.037C170.103 211.175 168.078 210.793 166.052 210.924C165.793 210.932 165.538 210.987 165.299 211.087C164.87 211.361 164.535 211.76 164.338 212.23C163.286 214.119 161.759 215.701 159.909 216.822Z" fill="#006A44" fill-opacity="0.35"/>
<path d="M149.859 204.915C150.088 204.407 150.704 204.219 151.08 203.813C151.802 203.041 151.477 201.806 151.588 200.765C151.772 199.241 153.038 197.966 154.487 197.423C155.965 196.949 157.538 196.849 159.064 197.133C159.799 197.187 160.509 197.422 161.129 197.819C161.394 198.012 161.638 198.261 161.887 198.439C162.341 198.713 162.885 198.799 163.402 198.678C163.919 198.558 164.368 198.24 164.654 197.794C162.853 195.63 160.86 193.344 158.124 192.678C157.185 192.487 156.228 192.397 155.271 192.409C154.004 192.384 152.697 192.363 151.527 192.846C149.936 193.501 148.817 195.01 148.242 196.635C147.74 198.283 147.471 199.993 147.444 201.715C147.339 202.864 147.339 204.02 147.444 205.169C147.64 206.738 148.224 208.234 149.142 209.522C149.266 209.722 149.442 209.885 149.651 209.995C151.97 211.011 149.671 205.337 149.859 204.915Z" fill="#006A44" fill-opacity="0.35"/>
<path d="M164.389 196.539C164.109 194.147 162.401 192.171 160.585 190.581C159.122 189.202 157.379 188.154 155.474 187.508C153.557 186.944 151.35 187.066 149.707 188.208C148.385 189.128 147.545 190.591 146.9 192.064C146.051 193.802 145.631 195.718 145.674 197.651C145.801 199.572 146.737 201.517 148.405 202.487C149.005 201.603 150.048 201.146 151.049 200.786C155.416 199.131 159.869 197.713 164.389 196.539Z" fill="#FED253"/>
<path opacity="0.1" d="M148.964 195.543C149.127 195.543 149.234 195.711 149.315 195.848C149.729 196.492 150.085 197.172 150.378 197.88C149.783 198.007 148.761 198.149 148.466 197.626C148.308 197.362 148.496 195.518 148.964 195.543Z" fill="#141C18"/>
<path opacity="0.1" d="M160.555 194.395C160.432 194.512 160.29 194.273 160.29 194.101V192.13C160.287 192.075 160.299 192.02 160.326 191.972C160.347 191.948 160.372 191.929 160.401 191.915C160.43 191.901 160.462 191.893 160.494 191.891C160.905 191.845 161.246 192.196 161.511 192.531C161.912 193.074 162.261 193.654 162.553 194.263L160.402 194.197" fill="#141C18"/>
<path d="M187.402 227.032C187.87 226.588 188.369 226.179 188.897 225.807C190.306 224.868 192.009 224.497 193.591 223.897C195.173 223.298 196.78 222.328 197.395 220.753C197.703 219.769 197.804 218.731 197.69 217.705C197.705 217.276 197.629 216.849 197.466 216.451C197.273 216.099 196.997 215.8 196.663 215.577C194.517 213.992 191.638 213.865 188.973 214.028C183.098 214.392 177.339 215.828 171.982 218.264C171.699 218.358 171.45 218.535 171.27 218.772C171.166 218.992 171.118 219.235 171.133 219.478C171.038 220.976 171.233 222.478 171.707 223.903C172.409 225.711 173.853 227.169 174.459 229.013C174.733 229.841 174.825 230.719 175.064 231.552C175.26 232.413 175.769 233.169 176.493 233.676C178.502 234.874 180.399 233.264 181.792 232.015L187.402 227.032Z" fill="#006A44" fill-opacity="0.35"/>
<path d="M161.093 234.067L158.515 228.449C158.137 227.67 157.811 226.868 157.539 226.046C157.244 225.066 157.101 224.05 156.827 223.065C155.921 219.783 153.638 217.05 152.524 213.835C152.454 213.545 152.31 213.277 152.107 213.058C151.945 212.943 151.759 212.865 151.563 212.83C151.367 212.795 151.165 212.803 150.973 212.855C149.417 213.124 148.201 214.307 146.777 214.978C146.116 215.283 145.404 215.486 144.743 215.836C144.413 215.993 144.12 216.218 143.885 216.498C143.649 216.778 143.477 217.105 143.38 217.457C143.222 218.234 143.609 218.981 143.934 219.737C145.318 222.856 145.633 226.341 145.694 229.754C145.74 232.05 145.623 234.514 144.265 236.358C141.656 239.914 143.324 245.135 144.301 249.438C144.418 249.946 144.555 250.494 144.636 251.033C144.722 251.707 144.761 252.385 144.753 253.065C144.753 255.345 144.626 257.697 143.67 259.765C144.614 260.266 145.654 260.561 146.721 260.628C149.674 261.004 152.639 261.268 155.616 261.42C156.549 261.508 157.489 261.46 158.408 261.278C159.499 260.984 160.461 260.334 161.142 259.433C161.823 258.531 162.183 257.429 162.167 256.3C162.329 257.707 162.629 259.236 163.652 260.212C164.674 261.187 166.164 261.334 167.552 261.41C171.471 261.618 175.4 261.507 179.3 261.08C179.549 261.069 179.794 261.012 180.022 260.913C180.775 260.537 180.816 259.5 180.755 258.667C180.643 257.108 180.526 255.548 180.338 253.999C180.178 253.012 180.096 252.013 180.094 251.012C180.171 249.983 180.341 248.963 180.602 247.965C181.284 244.795 181.823 241.559 181.594 238.313C181.503 237.523 181.471 236.727 181.497 235.931C181.629 234.138 182.575 232.431 182.397 230.648C181.889 225.406 181.477 220.027 180.012 214.968C179.748 214.064 179.412 213.093 178.624 212.575C177.607 211.895 176.178 212.25 175.013 211.818C174.466 211.564 173.947 211.256 173.462 210.899C172.408 210.241 171.2 209.869 169.958 209.822C169.022 209.787 167.979 209.995 167.415 210.747C167.154 211.17 166.981 211.642 166.906 212.133C166.169 215.232 165.304 218.295 164.44 221.358L163.611 224.294L161.388 232.177C161.17 233.016 161.317 233.275 161.093 234.067Z" fill="#1C791C"/>
<path d="M174.098 203.31L223.291 254.944V259.323H201.357L164.389 211.133" fill="#504D4D"/>
<path opacity="0.1" d="M174.098 203.31L223.291 254.944V259.323H201.357L164.389 211.133" fill="#141C18"/>
<path opacity="0.1" d="M165.172 210.452L165.33 210.508L201.672 254.944H223.291V259.322H201.357L164.389 211.133L165.172 210.452Z" fill="#141C18"/>
<path d="M170.833 211.539C169.053 212.316 167.074 213.312 166.54 215.181C166.435 215.509 166.412 215.858 166.474 216.197C166.604 216.596 166.852 216.945 167.186 217.2C167.519 217.455 167.922 217.603 168.341 217.624C169.178 217.645 170.011 217.492 170.787 217.177L181.289 213.713C181.574 213.622 181.899 213.485 181.97 213.205C181.989 213.029 181.953 212.852 181.869 212.697C181.543 211.905 181.223 210.284 180.541 209.731C179.982 209.284 178.873 209.441 178.197 209.451C175.593 209.472 173.147 210.523 170.833 211.539Z" fill="#1C791C"/>
<path d="M180.195 214.124C181.965 214.119 183.724 214.392 185.408 214.932C187.1 215.481 188.599 216.503 189.726 217.878C190.054 218.262 190.288 218.718 190.407 219.209C190.509 219.717 192.167 220.022 191.801 220.367C192.915 220.189 192.65 220.713 193.779 220.702C194.908 220.692 196.129 220.403 196.805 219.504C197.275 218.765 197.485 217.891 197.4 217.02C197.415 216.417 197.301 215.817 197.065 215.262C196.556 214.195 195.386 213.622 194.308 213.129L185.225 208.979C184.698 208.699 184.133 208.499 183.547 208.384C183.054 208.338 182.557 208.35 182.067 208.42L177.953 208.892C178.852 209.474 179.585 210.28 180.078 211.23C180.571 212.18 180.808 213.243 180.765 214.312" fill="#006A44" fill-opacity="0.35"/>
</g>
<defs>
<clipPath id="clip0_23_2526">
<rect width="599" height="368" fill="white"/>
</clipPath>
</defs>
</svg>
