<svg width="35" height="35" viewBox="0 0 35 35" fill="none" xmlns="http://www.w3.org/2000/svg">
<path d="M5.83333 26.25C5.64078 26.2544 5.44937 26.2194 5.27082 26.1472C5.09228 26.075 4.93036 25.967 4.795 25.83C4.65799 25.6947 4.55007 25.5328 4.47785 25.3542C4.40563 25.1757 4.37063 24.9843 4.375 24.7917C4.375 24.3795 4.515 24.0334 4.795 23.7534C4.93036 23.6164 5.09228 23.5084 5.27082 23.4362C5.44937 23.364 5.64078 23.329 5.83333 23.3334H21.875C22.2882 23.3334 22.6348 23.4734 22.9148 23.7534C23.0515 23.8889 23.1592 24.0508 23.2311 24.2294C23.3031 24.4079 23.3379 24.5993 23.3333 24.7917C23.3333 25.2039 23.1938 25.55 22.9148 25.83C22.7793 25.9672 22.6171 26.0752 22.4383 26.1475C22.2595 26.2197 22.0678 26.2546 21.875 26.25H5.83333Z" fill="#dfdfdf"/>
<path opacity="0.3" d="M25.375 17.5L29.6042 21.7292C29.737 21.8631 29.8411 22.0227 29.91 22.1982C29.979 22.3737 30.0114 22.5615 30.0052 22.75C30.0114 22.9385 29.979 23.1263 29.91 23.3018C29.8411 23.4773 29.737 23.6369 29.6042 23.7708C29.4703 23.9036 29.3107 24.0077 29.1351 24.0767C28.9596 24.1456 28.7718 24.178 28.5833 24.1719C28.3948 24.178 28.2071 24.1456 28.0315 24.0767C27.856 24.0077 27.6964 23.9036 27.5625 23.7708L22.3125 18.5208C22.1738 18.3895 22.0634 18.2312 21.9882 18.0557C21.913 17.8801 21.8744 17.691 21.875 17.5C21.875 17.1111 22.0208 16.7708 22.3125 16.4792L27.5625 11.2292C27.6964 11.0964 27.856 10.9923 28.0315 10.9233C28.2071 10.8544 28.3948 10.822 28.5833 10.8281C28.9965 10.8281 29.3368 10.9618 29.6042 11.2292C29.737 11.3631 29.8411 11.5227 29.91 11.6982C29.979 11.8737 30.0114 12.0615 30.0052 12.25C30.0114 12.4385 29.979 12.6263 29.91 12.8018C29.8411 12.9773 29.737 13.1369 29.6042 13.2708L25.375 17.5Z" fill="white"/>
<path d="M5.83336 11.6667C5.64092 11.6712 5.44957 11.6365 5.27103 11.5645C5.09249 11.4925 4.93052 11.3849 4.79503 11.2481C4.65784 11.1126 4.54982 10.9504 4.47759 10.7716C4.40537 10.5928 4.37046 10.4011 4.37503 10.2083C4.37503 9.79514 4.51503 9.44855 4.79503 9.16855C4.93052 9.0318 5.09249 8.92415 5.27103 8.85219C5.44957 8.78022 5.64092 8.74545 5.83336 8.75H21.875C22.0677 8.74525 22.2593 8.77992 22.4382 8.85189C22.617 8.92387 22.7792 9.03162 22.9148 9.16855C23.0517 9.3042 23.1595 9.46641 23.2315 9.64522C23.3034 9.82402 23.3381 10.0156 23.3334 10.2083C23.3381 10.401 23.3034 10.5927 23.2315 10.7715C23.1595 10.9503 23.0517 11.1125 22.9148 11.2481C22.7792 11.3851 22.617 11.4928 22.4382 11.5648C22.2593 11.6368 22.0677 11.6714 21.875 11.6667H5.83336Z" fill="#dfdfdf"/>
<path opacity="0.3" d="M5.83333 18.9583C5.64078 18.9627 5.44937 18.9277 5.27082 18.8554C5.09228 18.7832 4.93036 18.6753 4.795 18.5383C4.65799 18.4029 4.55007 18.241 4.47785 18.0625C4.40563 17.8839 4.37063 17.6925 4.375 17.5C4.375 17.0868 4.515 16.7402 4.795 16.4602C4.93049 16.3234 5.09246 16.2158 5.271 16.1438C5.44954 16.0718 5.64089 16.0371 5.83333 16.0416H17.5C17.6927 16.0369 17.8843 16.0715 18.0631 16.1435C18.2419 16.2155 18.4041 16.3232 18.5398 16.4602C18.6767 16.5958 18.7845 16.758 18.8564 16.9368C18.9284 17.1156 18.9631 17.3073 18.9583 17.5C18.9583 17.9122 18.8188 18.2583 18.5398 18.5383C18.4043 18.6755 18.2421 18.7835 18.0633 18.8557C17.8845 18.928 17.6928 18.9629 17.5 18.9583H5.83333Z" fill="white"/>
</svg>
