<svg width="21" height="21" viewBox="0 0 21 21" fill="none" xmlns="http://www.w3.org/2000/svg">
<path d="M9.1875 12.4688C9.05775 12.4687 8.93093 12.4302 8.82307 12.3581C8.7152 12.2859 8.63114 12.1835 8.58149 12.0636C8.53185 11.9437 8.51885 11.8118 8.54415 11.6846C8.56944 11.5573 8.6319 11.4404 8.72361 11.3486L15.2016 4.87061C14.8664 4.68857 14.4909 4.59339 14.1094 4.59375H4.26562C3.65666 4.5944 3.07282 4.8366 2.64221 5.26721C2.2116 5.69782 1.9694 6.28166 1.96875 6.89063V16.7344C1.9694 17.3433 2.2116 17.9272 2.64221 18.3578C3.07282 18.7884 3.65666 19.0306 4.26562 19.0313H14.1094C14.7183 19.0306 15.3022 18.7884 15.7328 18.3578C16.1634 17.9272 16.4056 17.3433 16.4062 16.7344V6.89063C16.4066 6.50914 16.3114 6.13364 16.1294 5.79838L9.65139 12.2764C9.59059 12.3375 9.51829 12.3859 9.43868 12.4189C9.35906 12.452 9.27369 12.4689 9.1875 12.4688Z" fill="#DFDFDF"/>
<path d="M18.375 1.96875H13.7812C13.6072 1.96875 13.4403 2.03789 13.3172 2.16096C13.1941 2.28403 13.125 2.45095 13.125 2.625C13.125 2.79905 13.1941 2.96597 13.3172 3.08904C13.4403 3.21211 13.6072 3.28125 13.7812 3.28125H16.7906L15.2016 4.87061C15.594 5.08374 15.9163 5.40599 16.1294 5.79838L17.7188 4.20943V7.21875C17.7188 7.3928 17.7879 7.55972 17.911 7.68279C18.034 7.80586 18.201 7.875 18.375 7.875C18.549 7.875 18.716 7.80586 18.839 7.68279C18.9621 7.55972 19.0312 7.3928 19.0312 7.21875V2.625C19.0312 2.45095 18.9621 2.28403 18.839 2.16096C18.716 2.03789 18.549 1.96875 18.375 1.96875Z" fill="#DFDFDF"/>
</svg>
