<svg width="23" height="23" viewBox="0 0 23 23" fill="none" xmlns="http://www.w3.org/2000/svg">
<path d="M5.8331 14.2205L8.5197 16.9071C8.34443 17.0886 8.13477 17.2333 7.90297 17.3329C7.67116 17.4325 7.42184 17.4849 7.16956 17.4871C6.91728 17.4893 6.66709 17.4412 6.43358 17.3457C6.20008 17.2502 5.98794 17.1091 5.80955 16.9307C5.63115 16.7523 5.49007 16.5401 5.39454 16.3066C5.299 16.0731 5.25093 15.8229 5.25312 15.5707C5.25531 15.3184 5.30773 15.0691 5.40731 14.8373C5.50688 14.6055 5.65163 14.3958 5.8331 14.2205ZM14.2567 19.2793L13.586 19.95L2.8501 9.21403L3.5208 8.54333L4.5677 8.69248C5.284 8.79508 6.17225 8.57658 6.54085 8.20798L10.2316 4.51818C11.3027 3.46721 12.7454 2.88161 14.246 2.88874C15.7466 2.89586 17.1837 3.49513 18.2448 4.55622C19.3059 5.61731 19.9052 7.05441 19.9123 8.555C19.9194 10.0556 19.3338 11.4983 18.2828 12.5694L14.5921 16.2602C14.2235 16.6288 14.005 17.517 14.1076 18.2333L14.2567 19.2793Z" fill="#DFDFDF"/>
</svg>
