<svg width="128" height="19" viewBox="0 0 128 19" fill="none" xmlns="http://www.w3.org/2000/svg">
<path d="M4.88281 6.18127C3.58073 6.18127 2.92969 6.83232 2.92969 8.1344V13.9938C2.92969 15.2959 3.58073 15.9469 4.88281 15.9469H14.6484C15.9505 15.9469 16.6016 15.2959 16.6016 13.9938V8.1344C16.6016 6.83232 15.9505 6.18127 14.6484 6.18127H4.88281ZM0.976562 8.1344C0.976562 5.53023 2.27865 4.22815 4.88281 4.22815H14.6484C17.2526 4.22815 18.5547 5.53023 18.5547 8.1344V13.9938C18.5547 16.5979 17.2526 17.9 14.6484 17.9H4.88281C2.27865 17.9 0.976562 16.5979 0.976562 13.9938V8.1344ZM32.9102 13.0172L28.8086 6.37659L24.707 13.0172H32.9102ZM34.1113 14.9703H23.5059L21.6992 17.9H19.3359L28.8086 2.69495L38.2812 17.9H35.918L34.1113 14.9703ZM41.5039 12.0406V17.9H39.5508V4.22815H41.5039V10.0875H47.9785L54.9219 4.22815H57.959L49.8633 11.0641L57.959 17.9H54.9219L47.9785 12.0406H41.5039Z" fill="#DFDFDF"/>
<path d="M65.5215 18.188C64.8975 18.188 64.3375 18.092 63.8415 17.9C63.3615 17.724 62.9535 17.484 62.6175 17.18C62.2815 16.876 62.0175 16.548 61.8255 16.196L61.2015 17.9H58.6575L61.7055 0.620024H64.5855L63.3615 7.43602C63.8415 6.89202 64.4335 6.43602 65.1375 6.06802C65.8415 5.70002 66.6655 5.51602 67.6095 5.51602C68.6335 5.51602 69.5055 5.75602 70.2255 6.23602C70.9615 6.71602 71.5215 7.37202 71.9055 8.20402C72.2895 9.02002 72.4495 9.95602 72.3855 11.012C72.3535 12.02 72.1535 12.956 71.7855 13.82C71.4175 14.684 70.9215 15.444 70.2975 16.1C69.6735 16.756 68.9535 17.268 68.1375 17.636C67.3375 18.004 66.4655 18.188 65.5215 18.188ZM65.3775 15.692C66.1135 15.692 66.7775 15.508 67.3695 15.14C67.9775 14.772 68.4575 14.26 68.8095 13.604C69.1775 12.948 69.3775 12.212 69.4095 11.396C69.4415 10.74 69.3455 10.164 69.1215 9.66802C68.8975 9.15602 68.5695 8.75602 68.1375 8.46802C67.7055 8.18002 67.1775 8.03602 66.5535 8.03602C65.8015 8.03602 65.1295 8.22802 64.5375 8.61202C63.9455 8.98002 63.4655 9.49202 63.0975 10.148C62.7295 10.804 62.5295 11.556 62.4975 12.404C62.4655 13.044 62.5615 13.612 62.7855 14.108C63.0095 14.604 63.3455 14.996 63.7935 15.284C64.2415 15.556 64.7695 15.692 65.3775 15.692ZM79.7919 18.188C78.7199 18.188 77.7839 17.948 76.9839 17.468C76.1999 16.988 75.5999 16.324 75.1839 15.476C74.7679 14.628 74.5919 13.66 74.6559 12.572C74.7039 11.564 74.9119 10.636 75.2799 9.78802C75.6639 8.92402 76.1759 8.18002 76.8159 7.55602C77.4719 6.91602 78.2239 6.42002 79.0719 6.06802C79.9199 5.70002 80.8319 5.51602 81.8079 5.51602C82.8799 5.51602 83.8079 5.75602 84.5919 6.23602C85.3919 6.70002 85.9999 7.35602 86.4159 8.20402C86.8479 9.03602 87.0319 10.004 86.9679 11.108C86.9199 12.116 86.7039 13.052 86.3199 13.916C85.9519 14.78 85.4399 15.532 84.7839 16.172C84.1279 16.796 83.3759 17.292 82.5279 17.66C81.6959 18.012 80.7839 18.188 79.7919 18.188ZM80.1759 15.716C80.8799 15.716 81.5119 15.524 82.0719 15.14C82.6319 14.756 83.0879 14.228 83.4399 13.556C83.7919 12.884 83.9839 12.108 84.0159 11.228C84.0639 10.524 83.9759 9.94002 83.7519 9.47602C83.5279 8.99602 83.2159 8.63602 82.8159 8.39602C82.4159 8.14002 81.9599 8.01202 81.4479 8.01202C80.7599 8.01202 80.1279 8.20402 79.5519 8.58802C78.9919 8.95602 78.5359 9.48402 78.1839 10.172C77.8479 10.844 77.6639 11.62 77.6319 12.5C77.5839 13.172 77.6639 13.748 77.8719 14.228C78.0959 14.708 78.4079 15.076 78.8079 15.332C79.2239 15.588 79.6799 15.716 80.1759 15.716ZM92.6649 18.188C91.7529 18.188 91.0089 18.044 90.4329 17.756C89.8569 17.452 89.4409 17.044 89.1849 16.532C88.9289 16.02 88.8089 15.46 88.8249 14.852C88.8729 14.02 89.1369 13.3 89.6169 12.692C90.1129 12.068 90.7929 11.588 91.6569 11.252C92.5209 10.916 93.5369 10.748 94.7049 10.748H97.7529C97.8649 10.092 97.8649 9.55602 97.7529 9.14002C97.6569 8.72402 97.4409 8.41202 97.1049 8.20402C96.7849 7.99602 96.3289 7.89202 95.7369 7.89202C95.0969 7.89202 94.5129 8.04402 93.9849 8.34802C93.4729 8.63602 93.1049 9.08402 92.8809 9.69202H90.0489C90.2889 8.82802 90.7049 8.09202 91.2969 7.48402C91.8889 6.86002 92.6009 6.38002 93.4329 6.04402C94.2809 5.69202 95.1849 5.51602 96.1449 5.51602C97.2809 5.51602 98.2169 5.71602 98.9529 6.11602C99.6889 6.50002 100.209 7.06002 100.513 7.79602C100.817 8.51602 100.873 9.38802 100.681 10.412L99.3849 17.9H96.8409L96.9369 15.98C96.7129 16.3 96.4569 16.596 96.1689 16.868C95.8809 17.14 95.5529 17.38 95.1849 17.588C94.8329 17.78 94.4489 17.924 94.0329 18.02C93.6169 18.132 93.1609 18.188 92.6649 18.188ZM93.6969 15.908C94.1449 15.908 94.5689 15.828 94.9689 15.668C95.3849 15.492 95.7529 15.252 96.0729 14.948C96.4089 14.644 96.6809 14.3 96.8889 13.916C97.0969 13.516 97.2409 13.1 97.3209 12.668V12.62H94.7049C94.1289 12.62 93.6329 12.7 93.2169 12.86C92.8169 13.004 92.5049 13.22 92.2809 13.508C92.0729 13.78 91.9609 14.108 91.9449 14.492C91.9129 14.956 92.0569 15.308 92.3769 15.548C92.6969 15.788 93.1369 15.908 93.6969 15.908ZM102.603 17.9L104.739 5.80402H107.307L107.187 7.98802C107.571 7.47602 108.011 7.03602 108.507 6.66802C109.003 6.30002 109.563 6.02002 110.187 5.82802C110.811 5.62002 111.467 5.51602 112.155 5.51602L111.627 8.56402H110.643C110.147 8.56402 109.675 8.62002 109.227 8.73202C108.779 8.84402 108.371 9.02802 108.003 9.28402C107.651 9.54002 107.347 9.88402 107.091 10.316C106.835 10.748 106.651 11.292 106.539 11.948L105.483 17.9H102.603ZM117.258 18.188C116.25 18.188 115.386 17.948 114.666 17.468C113.946 16.972 113.402 16.3 113.034 15.452C112.666 14.604 112.514 13.652 112.578 12.596C112.626 11.588 112.826 10.652 113.178 9.78802C113.546 8.92402 114.034 8.17202 114.642 7.53202C115.25 6.89202 115.954 6.39602 116.754 6.04402C117.57 5.69202 118.434 5.51602 119.346 5.51602C120.322 5.51602 121.114 5.70002 121.722 6.06802C122.346 6.43602 122.81 6.90802 123.114 7.48402L124.314 0.620024H127.194L124.146 17.9H121.578V16.148C121.29 16.5 120.938 16.836 120.522 17.156C120.106 17.46 119.626 17.708 119.082 17.9C118.554 18.092 117.946 18.188 117.258 18.188ZM118.362 15.692C119.114 15.692 119.786 15.492 120.378 15.092C120.986 14.692 121.466 14.156 121.818 13.484C122.186 12.812 122.394 12.068 122.442 11.252C122.474 10.596 122.378 10.028 122.154 9.54802C121.946 9.06802 121.618 8.70002 121.17 8.44402C120.738 8.17202 120.21 8.03602 119.586 8.03602C118.85 8.03602 118.186 8.22002 117.594 8.58802C117.002 8.95602 116.522 9.46802 116.154 10.124C115.786 10.764 115.586 11.5 115.554 12.332C115.506 12.972 115.594 13.548 115.818 14.06C116.042 14.572 116.37 14.972 116.802 15.26C117.234 15.548 117.754 15.692 118.362 15.692Z" fill="#15BD81"/>
</svg>
