  <svg width="24" height="25" viewBox="0 0 24 25" fill="none" xmlns="http://www.w3.org/2000/svg">
            <path d="M10.5 2.03833C12.096 2.03822 13.6597 2.48744 15.0123 3.33456C16.3649 4.18169 17.4517 5.3925 18.1482 6.82842C18.8448 8.26435 19.123 9.86738 18.9511 11.4541C18.7792 13.0407 18.164 14.5469 17.176 15.8003L20.828 19.4523C21.0102 19.6409 21.111 19.8935 21.1087 20.1557C21.1064 20.4179 21.0012 20.6687 20.8158 20.8541C20.6304 21.0396 20.3796 21.1447 20.1174 21.147C19.8552 21.1493 19.6026 21.0485 19.414 20.8663L15.762 17.2143C14.6975 18.0533 13.4477 18.6255 12.117 18.8832C10.7864 19.141 9.41333 19.0768 8.11252 18.6959C6.81171 18.3151 5.62084 17.6287 4.63925 16.6941C3.65766 15.7594 2.91382 14.6035 2.46979 13.3229C2.02576 12.0423 1.89442 10.6741 2.08672 9.33237C2.27902 7.99068 2.78939 6.71442 3.57525 5.61008C4.3611 4.50575 5.39966 3.60535 6.60427 2.98402C7.80887 2.36269 9.1446 2.03845 10.5 2.03833ZM10.5 4.03833C8.7761 4.03833 7.1228 4.72315 5.90382 5.94214C4.68483 7.16112 4.00001 8.81442 4.00001 10.5383C4.00001 12.2622 4.68483 13.9155 5.90382 15.1345C7.1228 16.3535 8.7761 17.0383 10.5 17.0383C12.2239 17.0383 13.8772 16.3535 15.0962 15.1345C16.3152 13.9155 17 12.2622 17 10.5383C17 8.81442 16.3152 7.16112 15.0962 5.94214C13.8772 4.72315 12.2239 4.03833 10.5 4.03833ZM10.5 5.03833C11.9587 5.03833 13.3576 5.61779 14.3891 6.64924C15.4205 7.68069 16 9.07964 16 10.5383C16 11.997 15.4205 13.396 14.3891 14.4274C13.3576 15.4589 11.9587 16.0383 10.5 16.0383C9.04132 16.0383 7.64237 15.4589 6.61092 14.4274C5.57947 13.396 5.00001 11.997 5.00001 10.5383C5.00001 9.07964 5.57947 7.68069 6.61092 6.64924C7.64237 5.61779 9.04132 5.03833 10.5 5.03833Z" fill="#A9A9A9"/>
            </svg>
