<svg width="21" height="21" viewBox="0 0 21 21" fill="none" xmlns="http://www.w3.org/2000/svg">
<path fill-rule="evenodd" clip-rule="evenodd" d="M12.432 4.22625C12.8287 4.34875 13.2078 4.50625 13.5695 4.69875L15.1734 3.73625C15.3406 3.63594 15.5366 3.59438 15.7301 3.61816C15.9237 3.64193 16.1038 3.72969 16.2418 3.8675L17.1325 4.75825C17.2703 4.89624 17.3581 5.07631 17.3818 5.26987C17.4056 5.46343 17.3641 5.65938 17.2637 5.82662L16.3012 7.4305C16.4937 7.79217 16.6513 8.17133 16.7738 8.568L18.5876 9.02212C18.7768 9.06953 18.9448 9.17879 19.0648 9.33257C19.1848 9.48634 19.25 9.67581 19.25 9.87088V11.1291C19.25 11.3242 19.1848 11.5137 19.0648 11.6674C18.9448 11.8212 18.7768 11.9305 18.5876 11.9779L16.7738 12.432C16.6513 12.8287 16.4937 13.2078 16.3012 13.5695L17.2637 15.1734C17.3641 15.3406 17.4056 15.5366 17.3818 15.7301C17.3581 15.9237 17.2703 16.1038 17.1325 16.2418L16.2418 17.1325C16.1038 17.2703 15.9237 17.3581 15.7301 17.3818C15.5366 17.4056 15.3406 17.3641 15.1734 17.2637L13.5695 16.3012C13.2078 16.4937 12.8287 16.6513 12.432 16.7738L11.9779 18.5876C11.9305 18.7768 11.8212 18.9448 11.6674 19.0648C11.5137 19.1848 11.3242 19.25 11.1291 19.25H9.87088C9.67581 19.25 9.48634 19.1848 9.33257 19.0648C9.17879 18.9448 9.06953 18.7768 9.02212 18.5876L8.568 16.7738C8.17486 16.6523 7.79401 16.4941 7.4305 16.3012L5.82662 17.2637C5.65938 17.3641 5.46343 17.4056 5.26987 17.3818C5.07631 17.3581 4.89624 17.2703 4.75825 17.1325L3.8675 16.2418C3.72969 16.1038 3.64193 15.9237 3.61816 15.7301C3.59438 15.5366 3.63594 15.3406 3.73625 15.1734L4.69875 13.5695C4.50594 13.206 4.34774 12.8251 4.22625 12.432L2.41237 11.9779C2.2233 11.9305 2.05546 11.8214 1.93547 11.6678C1.81547 11.5142 1.7502 11.3249 1.75 11.13V9.87175C1.75001 9.67669 1.81519 9.48722 1.9352 9.33344C2.05521 9.17967 2.22316 9.0704 2.41237 9.023L4.22625 8.56888C4.34875 8.17221 4.50625 7.79304 4.69875 7.43138L3.73625 5.8275C3.63594 5.66026 3.59438 5.4643 3.61816 5.27074C3.64193 5.07718 3.72969 4.89711 3.8675 4.75913L4.75825 3.8675C4.89624 3.72969 5.07631 3.64193 5.26987 3.61816C5.46343 3.59438 5.65938 3.63594 5.82662 3.73625L7.4305 4.69875C7.79217 4.50625 8.17133 4.34875 8.568 4.22625L9.02212 2.41237C9.06949 2.2233 9.17863 2.05546 9.33222 1.93547C9.48582 1.81547 9.67509 1.7502 9.87 1.75H11.1283C11.3233 1.75001 11.5128 1.81519 11.6666 1.9352C11.8203 2.05521 11.9296 2.22316 11.977 2.41237L12.432 4.22625ZM10.5 14C11.4283 14 12.3185 13.6313 12.9749 12.9749C13.6313 12.3185 14 11.4283 14 10.5C14 9.57174 13.6313 8.6815 12.9749 8.02513C12.3185 7.36875 11.4283 7 10.5 7C9.57174 7 8.6815 7.36875 8.02513 8.02513C7.36875 8.6815 7 9.57174 7 10.5C7 11.4283 7.36875 12.3185 8.02513 12.9749C8.6815 13.6313 9.57174 14 10.5 14Z" fill="#DFDFDF"/>
</svg>
