<svg width="53" height="53" viewBox="0 0 53 53" fill="none" xmlns="http://www.w3.org/2000/svg">
<g clip-path="url(#clip0_22_2262)">
<path d="M4.42012 48.5799C4.42012 51.0125 6.39727 53 8.84023 53H44.1701C46.6027 53 48.5902 51.0229 48.5902 48.5799V19.875H4.42012V48.5799ZM37.5451 26.5H41.9652V46.375H37.5451V26.5ZM24.2951 26.5H28.7152V46.375H24.2951V26.5ZM11.0451 26.5H15.4652V46.375H11.0451V26.5ZM50.7951 8.82988H37.5451V4.42012C37.5451 1.97715 35.5576 0 33.125 0H19.875C17.4424 0 15.4549 1.97715 15.4549 4.42012V8.84023H2.20488C0.983398 8.82988 0 9.82363 0 11.0451V13.25C0 14.4715 0.983398 15.4549 2.20488 15.4549H50.7848C52.0063 15.4549 52.9897 14.4715 52.9897 13.25V11.0451C53 9.82363 52.0166 8.82988 50.7951 8.82988ZM33.125 8.82988H19.875V4.42012H33.125V8.82988Z" fill="#C03D3B"/>
</g>
<defs>
<clipPath id="clip0_22_2262">
<rect width="53" height="53" fill="white"/>
</clipPath>
</defs>
</svg>
